# xmcd CD database file
#
# Track frame offsets:
#	150
#	13832
#	23235
#	35432
#	44640
#	57142
#	71360
#	84912
#	93582
#	107002
#	118915
#	132665
#
# Disc length: 1941 seconds
#
# Revision: 0
# Processed by: cddbd v1.5.1PL0 Copyright (c) Steve Scherf et al.
# Submitted via: CDex 1.51
#
DISCID=a307930c
DTITLE=Various Artist - DANCE DANCE DANCE
DYEAR=1989
DGENRE=Dance
TTITLE0=DANCE DANCE DANCE (OVERTURE)
TTITLE1=LONG TALL SALLY (LITTLE RICHARD)
TTITLE2=SUMMER IN THE CITY (LOVIN' SPOONFUL)
TTITLE3=WAKE UP LITTLE SUSIE (EVERLY BROTHERS)
TTITLE4=C. C. RIDER (RAY CHARLES)
TTITLE5=SOME ENCHANTED ENENING (MANTOVANI AND HIS ORCHESTRA)
TTITLE6=WONDERFUL WORLD (SAM and DAVE)
TTITLE7=SUGAR SHACK (JUMMY GILMORE)
TTITLE8=SPANISH HARLEM (BEN E. KING)
TTITLE9=COME GO WITH ME (DEL VIKINGS)
TTITLE10=SWEET LITTLE SIXTEEN (CHUCK BERRY)
TTITLE11=STARDUST (BENNY GOODMAN)
EXTD=YEAR: 1989
EXTT0=
EXTT1=
EXTT2=
EXTT3=
EXTT4=
EXTT5=
EXTT6=
EXTT7=
EXTT8=
EXTT9=
EXTT10=
EXTT11=
PLAYORDER=
